<mxfile host="Electron" agent="Mozilla/5.0 (Windows NT 10.0; Win64; x64) AppleWebKit/537.36 (KHTML, like Gecko) draw.io/28.1.2 Chrome/138.0.7204.243 Electron/37.4.0 Safari/537.36" version="28.1.2">
  <diagram name="PÃ¡gina-1" id="nSUWDhd3Jh8U2nydc0y9">
    <mxGraphModel dx="336" dy="-464" grid="1" gridSize="10" guides="1" tooltips="1" connect="1" arrows="1" fold="1" page="1" pageScale="1" pageWidth="827" pageHeight="1169" math="0" shadow="0">
      <root>
        <mxCell id="0" />
        <mxCell id="1" parent="0" />
        <mxCell id="R3Ze9OEiheNbRMXw7LAC-172" value="" style="html=1;points=[[0,0,0,0,5],[0,1,0,0,-5],[1,0,0,0,5],[1,1,0,0,-5]];perimeter=orthogonalPerimeter;outlineConnect=0;targetShapes=umlLifeline;portConstraint=eastwest;newEdgeStyle={&quot;curved&quot;:0,&quot;rounded&quot;:0};" vertex="1" parent="1">
          <mxGeometry x="1226" y="2802" width="10" height="28" as="geometry" />
        </mxCell>
        <mxCell id="R3Ze9OEiheNbRMXw7LAC-193" value="" style="html=1;points=[[0,0,0,0,5],[0,1,0,0,-5],[1,0,0,0,5],[1,1,0,0,-5]];perimeter=orthogonalPerimeter;outlineConnect=0;targetShapes=umlLifeline;portConstraint=eastwest;newEdgeStyle={&quot;curved&quot;:0,&quot;rounded&quot;:0};" vertex="1" parent="1">
          <mxGeometry x="1225" y="3020" width="10" height="20" as="geometry" />
        </mxCell>
        <mxCell id="R3Ze9OEiheNbRMXw7LAC-201" value="" style="html=1;points=[[0,0,0,0,5],[0,1,0,0,-5],[1,0,0,0,5],[1,1,0,0,-5]];perimeter=orthogonalPerimeter;outlineConnect=0;targetShapes=umlLifeline;portConstraint=eastwest;newEdgeStyle={&quot;curved&quot;:0,&quot;rounded&quot;:0};" vertex="1" parent="1">
          <mxGeometry x="1225" y="3060" width="10" height="20" as="geometry" />
        </mxCell>
        <mxCell id="R3Ze9OEiheNbRMXw7LAC-167" value="" style="html=1;points=[[0,0,0,0,5],[0,1,0,0,-5],[1,0,0,0,5],[1,1,0,0,-5]];perimeter=orthogonalPerimeter;outlineConnect=0;targetShapes=umlLifeline;portConstraint=eastwest;newEdgeStyle={&quot;curved&quot;:0,&quot;rounded&quot;:0};" vertex="1" parent="1">
          <mxGeometry x="1065" y="2760" width="10" height="30" as="geometry" />
        </mxCell>
        <mxCell id="R3Ze9OEiheNbRMXw7LAC-194" value="" style="html=1;points=[[0,0,0,0,5],[0,1,0,0,-5],[1,0,0,0,5],[1,1,0,0,-5]];perimeter=orthogonalPerimeter;outlineConnect=0;targetShapes=umlLifeline;portConstraint=eastwest;newEdgeStyle={&quot;curved&quot;:0,&quot;rounded&quot;:0};" vertex="1" parent="1">
          <mxGeometry x="1065" y="3031" width="10" height="29" as="geometry" />
        </mxCell>
        <mxCell id="R3Ze9OEiheNbRMXw7LAC-198" value="" style="html=1;points=[[0,0,0,0,5],[0,1,0,0,-5],[1,0,0,0,5],[1,1,0,0,-5]];perimeter=orthogonalPerimeter;outlineConnect=0;targetShapes=umlLifeline;portConstraint=eastwest;newEdgeStyle={&quot;curved&quot;:0,&quot;rounded&quot;:0};" vertex="1" parent="1">
          <mxGeometry x="1065" y="3060" width="10" height="60" as="geometry" />
        </mxCell>
        <mxCell id="R3Ze9OEiheNbRMXw7LAC-207" value="" style="html=1;points=[[0,0,0,0,5],[0,1,0,0,-5],[1,0,0,0,5],[1,1,0,0,-5]];perimeter=orthogonalPerimeter;outlineConnect=0;targetShapes=umlLifeline;portConstraint=eastwest;newEdgeStyle={&quot;curved&quot;:0,&quot;rounded&quot;:0};" vertex="1" parent="1">
          <mxGeometry x="1065" y="3180" width="10" height="30" as="geometry" />
        </mxCell>
        <mxCell id="R3Ze9OEiheNbRMXw7LAC-120" value="" style="rounded=0;whiteSpace=wrap;html=1;labelBackgroundColor=none;" vertex="1" parent="1">
          <mxGeometry x="845" y="2513" width="800" height="747" as="geometry" />
        </mxCell>
        <mxCell id="aPycU-Eq9o8mFGcGbb0F-111" value="" style="html=1;points=[[0,0,0,0,5],[0,1,0,0,-5],[1,0,0,0,5],[1,1,0,0,-5]];perimeter=orthogonalPerimeter;outlineConnect=0;targetShapes=umlLifeline;portConstraint=eastwest;newEdgeStyle={&quot;curved&quot;:0,&quot;rounded&quot;:0};labelBackgroundColor=none;" parent="1" vertex="1">
          <mxGeometry x="1596" y="1626" width="10" height="34" as="geometry" />
        </mxCell>
        <mxCell id="aPycU-Eq9o8mFGcGbb0F-105" value="" style="html=1;points=[[0,0,0,0,5],[0,1,0,0,-5],[1,0,0,0,5],[1,1,0,0,-5]];perimeter=orthogonalPerimeter;outlineConnect=0;targetShapes=umlLifeline;portConstraint=eastwest;newEdgeStyle={&quot;curved&quot;:0,&quot;rounded&quot;:0};labelBackgroundColor=none;" parent="1" vertex="1">
          <mxGeometry x="1596" y="1600" width="10" height="30" as="geometry" />
        </mxCell>
        <mxCell id="aPycU-Eq9o8mFGcGbb0F-99" value="" style="html=1;points=[[0,0,0,0,5],[0,1,0,0,-5],[1,0,0,0,5],[1,1,0,0,-5]];perimeter=orthogonalPerimeter;outlineConnect=0;targetShapes=umlLifeline;portConstraint=eastwest;newEdgeStyle={&quot;curved&quot;:0,&quot;rounded&quot;:0};labelBackgroundColor=none;" parent="1" vertex="1">
          <mxGeometry x="1135" y="1570" width="10" height="30" as="geometry" />
        </mxCell>
        <mxCell id="aPycU-Eq9o8mFGcGbb0F-7" value="" style="rounded=0;whiteSpace=wrap;html=1;labelBackgroundColor=none;" parent="1" vertex="1">
          <mxGeometry x="831" y="1230" width="810" height="590" as="geometry" />
        </mxCell>
        <mxCell id="aPycU-Eq9o8mFGcGbb0F-8" value="Usuario" style="shape=umlLifeline;perimeter=lifelinePerimeter;whiteSpace=wrap;html=1;container=1;dropTarget=0;collapsible=0;recursiveResize=0;outlineConnect=0;portConstraint=eastwest;newEdgeStyle={&quot;curved&quot;:0,&quot;rounded&quot;:0};participant=umlActor;size=70;labelBackgroundColor=none;" parent="1" vertex="1">
          <mxGeometry x="851" y="1250" width="50" height="570" as="geometry" />
        </mxCell>
        <mxCell id="aPycU-Eq9o8mFGcGbb0F-88" value="" style="html=1;points=[[0,0,0,0,5],[0,1,0,0,-5],[1,0,0,0,5],[1,1,0,0,-5]];perimeter=orthogonalPerimeter;outlineConnect=0;targetShapes=umlLifeline;portConstraint=eastwest;newEdgeStyle={&quot;curved&quot;:0,&quot;rounded&quot;:0};labelBackgroundColor=none;" parent="aPycU-Eq9o8mFGcGbb0F-8" vertex="1">
          <mxGeometry x="20" y="70" width="10" height="80" as="geometry" />
        </mxCell>
        <mxCell id="aPycU-Eq9o8mFGcGbb0F-107" value="" style="html=1;points=[[0,0,0,0,5],[0,1,0,0,-5],[1,0,0,0,5],[1,1,0,0,-5]];perimeter=orthogonalPerimeter;outlineConnect=0;targetShapes=umlLifeline;portConstraint=eastwest;newEdgeStyle={&quot;curved&quot;:0,&quot;rounded&quot;:0};labelBackgroundColor=none;" parent="aPycU-Eq9o8mFGcGbb0F-8" vertex="1">
          <mxGeometry x="20" y="350" width="10" height="60" as="geometry" />
        </mxCell>
        <mxCell id="R3Ze9OEiheNbRMXw7LAC-75" value="" style="html=1;points=[[0,0,0,0,5],[0,1,0,0,-5],[1,0,0,0,5],[1,1,0,0,-5]];perimeter=orthogonalPerimeter;outlineConnect=0;targetShapes=umlLifeline;portConstraint=eastwest;newEdgeStyle={&quot;curved&quot;:0,&quot;rounded&quot;:0};" vertex="1" parent="aPycU-Eq9o8mFGcGbb0F-8">
          <mxGeometry x="20" y="70" width="10" height="450" as="geometry" />
        </mxCell>
        <mxCell id="aPycU-Eq9o8mFGcGbb0F-9" value="REGISTRARSE" style="rounded=0;whiteSpace=wrap;html=1;labelBackgroundColor=none;" parent="1" vertex="1">
          <mxGeometry x="1085" y="1180" width="320" height="60" as="geometry" />
        </mxCell>
        <mxCell id="aPycU-Eq9o8mFGcGbb0F-16" value=":UI" style="shape=umlLifeline;perimeter=lifelinePerimeter;whiteSpace=wrap;html=1;container=1;dropTarget=0;collapsible=0;recursiveResize=0;outlineConnect=0;portConstraint=eastwest;newEdgeStyle={&quot;curved&quot;:0,&quot;rounded&quot;:0};participant=umlBoundary;size=60;align=center;labelBackgroundColor=none;" parent="1" vertex="1">
          <mxGeometry x="1020" y="1250" width="80" height="570" as="geometry" />
        </mxCell>
        <mxCell id="R3Ze9OEiheNbRMXw7LAC-128" value="" style="html=1;points=[[0,0,0,0,5],[0,1,0,0,-5],[1,0,0,0,5],[1,1,0,0,-5]];perimeter=orthogonalPerimeter;outlineConnect=0;targetShapes=umlLifeline;portConstraint=eastwest;newEdgeStyle={&quot;curved&quot;:0,&quot;rounded&quot;:0};" vertex="1" parent="aPycU-Eq9o8mFGcGbb0F-16">
          <mxGeometry x="35" y="200" width="10" height="80" as="geometry" />
        </mxCell>
        <mxCell id="R3Ze9OEiheNbRMXw7LAC-130" value="" style="html=1;points=[[0,0,0,0,5],[0,1,0,0,-5],[1,0,0,0,5],[1,1,0,0,-5]];perimeter=orthogonalPerimeter;outlineConnect=0;targetShapes=umlLifeline;portConstraint=eastwest;newEdgeStyle={&quot;curved&quot;:0,&quot;rounded&quot;:0};" vertex="1" parent="aPycU-Eq9o8mFGcGbb0F-16">
          <mxGeometry x="35" y="500" width="10" height="60" as="geometry" />
        </mxCell>
        <mxCell id="aPycU-Eq9o8mFGcGbb0F-89" value="" style="html=1;points=[[0,0,0,0,5],[0,1,0,0,-5],[1,0,0,0,5],[1,1,0,0,-5]];perimeter=orthogonalPerimeter;outlineConnect=0;targetShapes=umlLifeline;portConstraint=eastwest;newEdgeStyle={&quot;curved&quot;:0,&quot;rounded&quot;:0};labelBackgroundColor=none;" parent="aPycU-Eq9o8mFGcGbb0F-16" vertex="1">
          <mxGeometry x="35" y="70" width="10" height="30" as="geometry" />
        </mxCell>
        <mxCell id="R3Ze9OEiheNbRMXw7LAC-76" value="" style="html=1;points=[[0,0,0,0,5],[0,1,0,0,-5],[1,0,0,0,5],[1,1,0,0,-5]];perimeter=orthogonalPerimeter;outlineConnect=0;targetShapes=umlLifeline;portConstraint=eastwest;newEdgeStyle={&quot;curved&quot;:0,&quot;rounded&quot;:0};" vertex="1" parent="aPycU-Eq9o8mFGcGbb0F-16">
          <mxGeometry x="35" y="70" width="10" height="500" as="geometry" />
        </mxCell>
        <mxCell id="aPycU-Eq9o8mFGcGbb0F-18" value="BD:LinuxLearn" style="shape=umlLifeline;perimeter=lifelinePerimeter;whiteSpace=wrap;html=1;container=1;dropTarget=0;collapsible=0;recursiveResize=0;outlineConnect=0;portConstraint=eastwest;newEdgeStyle={&quot;curved&quot;:0,&quot;rounded&quot;:0};participant=umlEntity;size=60;labelBackgroundColor=none;" parent="1" vertex="1">
          <mxGeometry x="1551" y="1230" width="80" height="590" as="geometry" />
        </mxCell>
        <mxCell id="aPycU-Eq9o8mFGcGbb0F-93" value="" style="html=1;points=[[0,0,0,0,5],[0,1,0,0,-5],[1,0,0,0,5],[1,1,0,0,-5]];perimeter=orthogonalPerimeter;outlineConnect=0;targetShapes=umlLifeline;portConstraint=eastwest;newEdgeStyle={&quot;curved&quot;:0,&quot;rounded&quot;:0};labelBackgroundColor=none;" parent="aPycU-Eq9o8mFGcGbb0F-18" vertex="1">
          <mxGeometry x="35" y="140" width="10" height="60" as="geometry" />
        </mxCell>
        <mxCell id="aPycU-Eq9o8mFGcGbb0F-121" value="" style="html=1;points=[[0,0,0,0,5],[0,1,0,0,-5],[1,0,0,0,5],[1,1,0,0,-5]];perimeter=orthogonalPerimeter;outlineConnect=0;targetShapes=umlLifeline;portConstraint=eastwest;newEdgeStyle={&quot;curved&quot;:0,&quot;rounded&quot;:0};labelBackgroundColor=none;" parent="aPycU-Eq9o8mFGcGbb0F-18" vertex="1">
          <mxGeometry x="35" y="470" width="10" height="40" as="geometry" />
        </mxCell>
        <mxCell id="R3Ze9OEiheNbRMXw7LAC-79" value="" style="html=1;points=[[0,0,0,0,5],[0,1,0,0,-5],[1,0,0,0,5],[1,1,0,0,-5]];perimeter=orthogonalPerimeter;outlineConnect=0;targetShapes=umlLifeline;portConstraint=eastwest;newEdgeStyle={&quot;curved&quot;:0,&quot;rounded&quot;:0};" vertex="1" parent="aPycU-Eq9o8mFGcGbb0F-18">
          <mxGeometry x="35" y="270" width="10" height="40" as="geometry" />
        </mxCell>
        <mxCell id="aPycU-Eq9o8mFGcGbb0F-19" value=":AppServer" style="shape=umlLifeline;perimeter=lifelinePerimeter;whiteSpace=wrap;html=1;container=1;dropTarget=0;collapsible=0;recursiveResize=0;outlineConnect=0;portConstraint=eastwest;newEdgeStyle={&quot;curved&quot;:0,&quot;rounded&quot;:0};labelBackgroundColor=none;" parent="1" vertex="1">
          <mxGeometry x="1195" y="1250" width="100" height="570" as="geometry" />
        </mxCell>
        <mxCell id="aPycU-Eq9o8mFGcGbb0F-136" value="" style="html=1;points=[[0,0,0,0,5],[0,1,0,0,-5],[1,0,0,0,5],[1,1,0,0,-5]];perimeter=orthogonalPerimeter;outlineConnect=0;targetShapes=umlLifeline;portConstraint=eastwest;newEdgeStyle={&quot;curved&quot;:0,&quot;rounded&quot;:0};labelBackgroundColor=none;" parent="aPycU-Eq9o8mFGcGbb0F-19" vertex="1">
          <mxGeometry x="44" y="550" width="10" height="10" as="geometry" />
        </mxCell>
        <mxCell id="aPycU-Eq9o8mFGcGbb0F-129" value="" style="html=1;points=[[0,0,0,0,5],[0,1,0,0,-5],[1,0,0,0,5],[1,1,0,0,-5]];perimeter=orthogonalPerimeter;outlineConnect=0;targetShapes=umlLifeline;portConstraint=eastwest;newEdgeStyle={&quot;curved&quot;:0,&quot;rounded&quot;:0};labelBackgroundColor=none;" parent="aPycU-Eq9o8mFGcGbb0F-19" vertex="1">
          <mxGeometry x="44" y="480" width="10" height="30" as="geometry" />
        </mxCell>
        <mxCell id="aPycU-Eq9o8mFGcGbb0F-112" value="" style="html=1;points=[[0,0,0,0,5],[0,1,0,0,-5],[1,0,0,0,5],[1,1,0,0,-5]];perimeter=orthogonalPerimeter;outlineConnect=0;targetShapes=umlLifeline;portConstraint=eastwest;newEdgeStyle={&quot;curved&quot;:0,&quot;rounded&quot;:0};labelBackgroundColor=none;" parent="aPycU-Eq9o8mFGcGbb0F-19" vertex="1">
          <mxGeometry x="48" y="310" width="6" height="25" as="geometry" />
        </mxCell>
        <mxCell id="aPycU-Eq9o8mFGcGbb0F-106" value="" style="html=1;points=[[0,0,0,0,5],[0,1,0,0,-5],[1,0,0,0,5],[1,1,0,0,-5]];perimeter=orthogonalPerimeter;outlineConnect=0;targetShapes=umlLifeline;portConstraint=eastwest;newEdgeStyle={&quot;curved&quot;:0,&quot;rounded&quot;:0};labelBackgroundColor=none;" parent="aPycU-Eq9o8mFGcGbb0F-19" vertex="1">
          <mxGeometry x="44" y="250" width="10" height="40" as="geometry" />
        </mxCell>
        <mxCell id="aPycU-Eq9o8mFGcGbb0F-91" value="" style="html=1;points=[[0,0,0,0,5],[0,1,0,0,-5],[1,0,0,0,5],[1,1,0,0,-5]];perimeter=orthogonalPerimeter;outlineConnect=0;targetShapes=umlLifeline;portConstraint=eastwest;newEdgeStyle={&quot;curved&quot;:0,&quot;rounded&quot;:0};labelBackgroundColor=none;" parent="aPycU-Eq9o8mFGcGbb0F-19" vertex="1">
          <mxGeometry x="44" y="90" width="10" height="40" as="geometry" />
        </mxCell>
        <mxCell id="aPycU-Eq9o8mFGcGbb0F-96" value="" style="html=1;points=[[0,0,0,0,5],[0,1,0,0,-5],[1,0,0,0,5],[1,1,0,0,-5]];perimeter=orthogonalPerimeter;outlineConnect=0;targetShapes=umlLifeline;portConstraint=eastwest;newEdgeStyle={&quot;curved&quot;:0,&quot;rounded&quot;:0};labelBackgroundColor=none;" parent="aPycU-Eq9o8mFGcGbb0F-19" vertex="1">
          <mxGeometry x="44" y="170" width="10" height="40" as="geometry" />
        </mxCell>
        <mxCell id="aPycU-Eq9o8mFGcGbb0F-126" value="" style="html=1;points=[[0,0,0,0,5],[0,1,0,0,-5],[1,0,0,0,5],[1,1,0,0,-5]];perimeter=orthogonalPerimeter;outlineConnect=0;targetShapes=umlLifeline;portConstraint=eastwest;newEdgeStyle={&quot;curved&quot;:0,&quot;rounded&quot;:0};labelBackgroundColor=none;" parent="aPycU-Eq9o8mFGcGbb0F-19" vertex="1">
          <mxGeometry x="44" y="430" width="10" height="30" as="geometry" />
        </mxCell>
        <mxCell id="R3Ze9OEiheNbRMXw7LAC-77" value="" style="html=1;points=[[0,0,0,0,5],[0,1,0,0,-5],[1,0,0,0,5],[1,1,0,0,-5]];perimeter=orthogonalPerimeter;outlineConnect=0;targetShapes=umlLifeline;portConstraint=eastwest;newEdgeStyle={&quot;curved&quot;:0,&quot;rounded&quot;:0};" vertex="1" parent="aPycU-Eq9o8mFGcGbb0F-19">
          <mxGeometry x="44" y="90" width="10" height="470" as="geometry" />
        </mxCell>
        <mxCell id="aPycU-Eq9o8mFGcGbb0F-20" value=":CorreoService&lt;span style=&quot;color: rgba(0, 0, 0, 0); font-family: monospace; font-size: 0px; text-align: start; text-wrap-mode: nowrap;&quot;&gt;%3CmxGraphModel%3E%3Croot%3E%3CmxCell%20id%3D%220%22%2F%3E%3CmxCell%20id%3D%221%22%20parent%3D%220%22%2F%3E%3CmxCell%20id%3D%222%22%20value%3D%22%3AObject%22%20style%3D%22shape%3DumlLifeline%3Bperimeter%3DlifelinePerimeter%3BwhiteSpace%3Dwrap%3Bhtml%3D1%3Bcontainer%3D1%3BdropTarget%3D0%3Bcollapsible%3D0%3BrecursiveResize%3D0%3BoutlineConnect%3D0%3BportConstraint%3Deastwest%3BnewEdgeStyle%3D%7B%26quot%3Bcurved%26quot%3B%3A0%2C%26quot%3Brounded%26quot%3B%3A0%7D%3B%22%20vertex%3D%221%22%20parent%3D%221%22%3E%3CmxGeometry%20x%3D%22254%22%20y%3D%22140%22%20width%3D%22100%22%20height%3D%22300%22%20as%3D%22geometry%22%2F%3E%3C%2FmxCell%3E%3C%2Froot%3E%3C%2FmxGraphModel%3E&lt;/span&gt;" style="shape=umlLifeline;perimeter=lifelinePerimeter;whiteSpace=wrap;html=1;container=1;dropTarget=0;collapsible=0;recursiveResize=0;outlineConnect=0;portConstraint=eastwest;newEdgeStyle={&quot;curved&quot;:0,&quot;rounded&quot;:0};size=40;labelBackgroundColor=none;" parent="1" vertex="1">
          <mxGeometry x="1380" y="1250" width="100" height="570" as="geometry" />
        </mxCell>
        <mxCell id="aPycU-Eq9o8mFGcGbb0F-114" value="" style="html=1;points=[[0,0,0,0,5],[0,1,0,0,-5],[1,0,0,0,5],[1,1,0,0,-5]];perimeter=orthogonalPerimeter;outlineConnect=0;targetShapes=umlLifeline;portConstraint=eastwest;newEdgeStyle={&quot;curved&quot;:0,&quot;rounded&quot;:0};labelBackgroundColor=none;" parent="aPycU-Eq9o8mFGcGbb0F-20" vertex="1">
          <mxGeometry x="45" y="310" width="10" height="47.5" as="geometry" />
        </mxCell>
        <mxCell id="aPycU-Eq9o8mFGcGbb0F-118" value="" style="html=1;points=[[0,0,0,0,5],[0,1,0,0,-5],[1,0,0,0,5],[1,1,0,0,-5]];perimeter=orthogonalPerimeter;outlineConnect=0;targetShapes=umlLifeline;portConstraint=eastwest;newEdgeStyle={&quot;curved&quot;:0,&quot;rounded&quot;:0};labelBackgroundColor=none;" parent="aPycU-Eq9o8mFGcGbb0F-20" vertex="1">
          <mxGeometry x="45" y="400" width="10" height="40" as="geometry" />
        </mxCell>
        <mxCell id="aPycU-Eq9o8mFGcGbb0F-90" value="&lt;font style=&quot;font-size: 9px;&quot;&gt;Llena datos del formulario&lt;/font&gt;" style="html=1;verticalAlign=bottom;endArrow=block;curved=0;rounded=0;exitX=1;exitY=0;exitDx=0;exitDy=5;exitPerimeter=0;entryX=0;entryY=0;entryDx=0;entryDy=5;entryPerimeter=0;labelBackgroundColor=none;fontColor=default;" parent="1" source="aPycU-Eq9o8mFGcGbb0F-88" target="aPycU-Eq9o8mFGcGbb0F-89" edge="1">
          <mxGeometry width="80" relative="1" as="geometry">
            <mxPoint x="1101" y="1490" as="sourcePoint" />
            <mxPoint x="1181" y="1490" as="targetPoint" />
          </mxGeometry>
        </mxCell>
        <mxCell id="aPycU-Eq9o8mFGcGbb0F-92" value="&lt;font style=&quot;font-size: 9px;&quot;&gt;Enviar datos de registro&lt;/font&gt;" style="html=1;verticalAlign=bottom;endArrow=block;curved=0;rounded=0;entryX=0;entryY=0;entryDx=0;entryDy=5;entryPerimeter=0;exitX=1;exitY=1;exitDx=0;exitDy=-5;exitPerimeter=0;labelBackgroundColor=none;fontColor=default;" parent="1" source="aPycU-Eq9o8mFGcGbb0F-89" target="aPycU-Eq9o8mFGcGbb0F-91" edge="1">
          <mxGeometry width="80" relative="1" as="geometry">
            <mxPoint x="1101" y="1490" as="sourcePoint" />
            <mxPoint x="1181" y="1490" as="targetPoint" />
          </mxGeometry>
        </mxCell>
        <mxCell id="aPycU-Eq9o8mFGcGbb0F-94" value="Verificar si email ya existe" style="html=1;verticalAlign=bottom;endArrow=block;curved=0;rounded=0;exitX=1;exitY=1;exitDx=0;exitDy=-5;exitPerimeter=0;entryX=0;entryY=0;entryDx=0;entryDy=5;entryPerimeter=0;fontSize=9;labelBackgroundColor=none;fontColor=default;" parent="1" source="aPycU-Eq9o8mFGcGbb0F-91" target="aPycU-Eq9o8mFGcGbb0F-93" edge="1">
          <mxGeometry width="80" relative="1" as="geometry">
            <mxPoint x="1331" y="1510" as="sourcePoint" />
            <mxPoint x="1411" y="1510" as="targetPoint" />
          </mxGeometry>
        </mxCell>
        <mxCell id="aPycU-Eq9o8mFGcGbb0F-95" value="alt" style="shape=umlFrame;whiteSpace=wrap;html=1;pointerEvents=0;labelBackgroundColor=none;" parent="1" vertex="1">
          <mxGeometry x="845" y="1400" width="790" height="233" as="geometry" />
        </mxCell>
        <mxCell id="aPycU-Eq9o8mFGcGbb0F-97" value="[Email existe]" style="text;align=center;fontStyle=1;verticalAlign=middle;spacingLeft=3;spacingRight=3;rotatable=0;points=[[0,0.5],[1,0.5]];portConstraint=eastwest;html=1;fontSize=10;labelBackgroundColor=none;" parent="1" vertex="1">
          <mxGeometry x="911" y="1400" width="80" height="26" as="geometry" />
        </mxCell>
        <mxCell id="aPycU-Eq9o8mFGcGbb0F-98" value="Error &quot;Email ya existe&quot;" style="html=1;verticalAlign=bottom;endArrow=open;dashed=1;endSize=8;curved=0;rounded=0;exitX=0;exitY=1;exitDx=0;exitDy=-5;exitPerimeter=0;entryX=1;entryY=0;entryDx=0;entryDy=5;entryPerimeter=0;fontSize=9;labelBackgroundColor=none;fontColor=default;" parent="1" source="aPycU-Eq9o8mFGcGbb0F-93" target="aPycU-Eq9o8mFGcGbb0F-96" edge="1">
          <mxGeometry relative="1" as="geometry">
            <mxPoint x="1291" y="1540" as="sourcePoint" />
            <mxPoint x="1211" y="1540" as="targetPoint" />
          </mxGeometry>
        </mxCell>
        <mxCell id="aPycU-Eq9o8mFGcGbb0F-100" value="Mostrar mensaje de error" style="html=1;verticalAlign=bottom;endArrow=open;dashed=1;endSize=8;curved=0;rounded=0;exitX=0;exitY=1;exitDx=0;exitDy=-5;exitPerimeter=0;fontSize=9;labelBackgroundColor=none;fontColor=default;" parent="1" source="aPycU-Eq9o8mFGcGbb0F-96" target="R3Ze9OEiheNbRMXw7LAC-128" edge="1">
          <mxGeometry relative="1" as="geometry">
            <mxPoint x="1281" y="1510" as="sourcePoint" />
            <mxPoint x="1145" y="1575" as="targetPoint" />
          </mxGeometry>
        </mxCell>
        <mxCell id="aPycU-Eq9o8mFGcGbb0F-101" value="" style="endArrow=none;dashed=1;html=1;rounded=0;exitX=-0.001;exitY=0.344;exitDx=0;exitDy=0;exitPerimeter=0;entryX=0.996;entryY=0.338;entryDx=0;entryDy=0;entryPerimeter=0;labelBackgroundColor=none;fontColor=default;" parent="1" edge="1">
          <mxGeometry width="50" height="50" relative="1" as="geometry">
            <mxPoint x="845" y="1481.2" as="sourcePoint" />
            <mxPoint x="1632.6299999999999" y="1480" as="targetPoint" />
            <Array as="points">
              <mxPoint x="1140.79" y="1480.4" />
            </Array>
          </mxGeometry>
        </mxCell>
        <mxCell id="aPycU-Eq9o8mFGcGbb0F-104" value="[Email no existe]" style="text;align=center;fontStyle=1;verticalAlign=middle;spacingLeft=3;spacingRight=3;rotatable=0;points=[[0,0.5],[1,0.5]];portConstraint=eastwest;html=1;fontSize=10;labelBackgroundColor=none;" parent="1" vertex="1">
          <mxGeometry x="920" y="1490" width="80" height="26" as="geometry" />
        </mxCell>
        <mxCell id="aPycU-Eq9o8mFGcGbb0F-109" value="ok" style="html=1;verticalAlign=bottom;endArrow=open;dashed=1;endSize=8;curved=0;rounded=0;exitX=0;exitY=0;exitDx=0;exitDy=5;exitPerimeter=0;entryX=1;entryY=0;entryDx=0;entryDy=5;entryPerimeter=0;fontSize=9;labelBackgroundColor=none;fontColor=default;" parent="1" source="R3Ze9OEiheNbRMXw7LAC-79" target="aPycU-Eq9o8mFGcGbb0F-106" edge="1">
          <mxGeometry relative="1" as="geometry">
            <mxPoint x="1271" y="1730" as="sourcePoint" />
            <mxPoint x="1191" y="1730" as="targetPoint" />
          </mxGeometry>
        </mxCell>
        <mxCell id="aPycU-Eq9o8mFGcGbb0F-110" value="Guarda usuario como inactivo" style="html=1;verticalAlign=bottom;endArrow=block;curved=0;rounded=0;exitX=1;exitY=1;exitDx=0;exitDy=-5;exitPerimeter=0;fontSize=9;labelBackgroundColor=none;fontColor=default;entryX=1;entryY=1;entryDx=0;entryDy=-5;entryPerimeter=0;" parent="1" source="aPycU-Eq9o8mFGcGbb0F-106" target="R3Ze9OEiheNbRMXw7LAC-79" edge="1">
          <mxGeometry width="80" relative="1" as="geometry">
            <mxPoint x="1291" y="1690" as="sourcePoint" />
            <mxPoint x="1371" y="1690" as="targetPoint" />
          </mxGeometry>
        </mxCell>
        <mxCell id="aPycU-Eq9o8mFGcGbb0F-113" value="enviar email de&amp;nbsp;&lt;div&gt;confirmaciÃ³n con token&lt;/div&gt;" style="html=1;verticalAlign=bottom;endArrow=block;curved=0;rounded=0;exitX=1;exitY=0;exitDx=0;exitDy=5;exitPerimeter=0;fontSize=9;entryX=0;entryY=0;entryDx=0;entryDy=5;entryPerimeter=0;labelBackgroundColor=none;fontColor=default;" parent="1" source="aPycU-Eq9o8mFGcGbb0F-112" target="aPycU-Eq9o8mFGcGbb0F-114" edge="1">
          <mxGeometry width="80" relative="1" as="geometry">
            <mxPoint x="1291" y="1690" as="sourcePoint" />
            <mxPoint x="1371" y="1690" as="targetPoint" />
          </mxGeometry>
        </mxCell>
        <mxCell id="aPycU-Eq9o8mFGcGbb0F-115" value="recibe email" style="html=1;verticalAlign=bottom;endArrow=open;dashed=1;endSize=8;curved=0;rounded=0;exitX=0;exitY=1;exitDx=0;exitDy=-5;exitPerimeter=0;entryX=1;entryY=0;entryDx=0;entryDy=5;entryPerimeter=0;fontSize=9;labelBackgroundColor=none;fontColor=default;" parent="1" source="aPycU-Eq9o8mFGcGbb0F-114" target="aPycU-Eq9o8mFGcGbb0F-107" edge="1">
          <mxGeometry relative="1" as="geometry">
            <mxPoint x="1391" y="1690" as="sourcePoint" />
            <mxPoint x="1311" y="1690" as="targetPoint" />
          </mxGeometry>
        </mxCell>
        <mxCell id="aPycU-Eq9o8mFGcGbb0F-120" value="Hace click en enlace de confirmacion" style="html=1;verticalAlign=bottom;endArrow=block;curved=0;rounded=0;exitX=1;exitY=1;exitDx=0;exitDy=-5;exitPerimeter=0;fontSize=9;entryX=0;entryY=0;entryDx=0;entryDy=5;entryPerimeter=0;labelBackgroundColor=none;fontColor=default;" parent="1" source="aPycU-Eq9o8mFGcGbb0F-107" target="aPycU-Eq9o8mFGcGbb0F-118" edge="1">
          <mxGeometry width="80" relative="1" as="geometry">
            <mxPoint x="946" y="1790" as="sourcePoint" />
            <mxPoint x="1276" y="1790" as="targetPoint" />
          </mxGeometry>
        </mxCell>
        <mxCell id="aPycU-Eq9o8mFGcGbb0F-124" value="alt" style="shape=umlFrame;whiteSpace=wrap;html=1;pointerEvents=0;labelBackgroundColor=none;" parent="1" vertex="1">
          <mxGeometry x="1045" y="1715" width="590" height="105" as="geometry" />
        </mxCell>
        <mxCell id="aPycU-Eq9o8mFGcGbb0F-125" value="[Token valido]" style="text;align=center;fontStyle=1;verticalAlign=middle;spacingLeft=3;spacingRight=3;rotatable=0;points=[[0,0.5],[1,0.5]];portConstraint=eastwest;html=1;fontSize=10;labelBackgroundColor=none;" parent="1" vertex="1">
          <mxGeometry x="1105" y="1715" width="80" height="26" as="geometry" />
        </mxCell>
        <mxCell id="aPycU-Eq9o8mFGcGbb0F-127" value="enviar token de verificacion" style="html=1;verticalAlign=bottom;endArrow=open;curved=0;rounded=0;entryX=1;entryY=0;entryDx=0;entryDy=5;entryPerimeter=0;exitX=0;exitY=1;exitDx=0;exitDy=-5;exitPerimeter=0;fontSize=9;labelBackgroundColor=none;fontColor=default;dashed=1;endFill=0;" parent="1" source="aPycU-Eq9o8mFGcGbb0F-118" target="aPycU-Eq9o8mFGcGbb0F-126" edge="1">
          <mxGeometry width="80" relative="1" as="geometry">
            <mxPoint x="1231" y="1850" as="sourcePoint" />
            <mxPoint x="1311" y="1850" as="targetPoint" />
          </mxGeometry>
        </mxCell>
        <mxCell id="aPycU-Eq9o8mFGcGbb0F-128" value="Verificar token" style="html=1;verticalAlign=bottom;endArrow=block;curved=0;rounded=0;entryX=0;entryY=0;entryDx=0;entryDy=5;entryPerimeter=0;exitX=1;exitY=1;exitDx=0;exitDy=-5;exitPerimeter=0;fontSize=9;labelBackgroundColor=none;fontColor=default;" parent="1" source="aPycU-Eq9o8mFGcGbb0F-126" target="aPycU-Eq9o8mFGcGbb0F-121" edge="1">
          <mxGeometry width="80" relative="1" as="geometry">
            <mxPoint x="1231" y="1850" as="sourcePoint" />
            <mxPoint x="1311" y="1850" as="targetPoint" />
          </mxGeometry>
        </mxCell>
        <mxCell id="aPycU-Eq9o8mFGcGbb0F-131" value="&lt;font style=&quot;font-size: 9px;&quot;&gt;Activar usuario&lt;/font&gt;" style="html=1;verticalAlign=bottom;endArrow=open;dashed=1;endSize=8;curved=0;rounded=0;exitX=0;exitY=1;exitDx=0;exitDy=-5;exitPerimeter=0;entryX=1;entryY=0;entryDx=0;entryDy=5;entryPerimeter=0;labelBackgroundColor=none;fontColor=default;" parent="1" source="aPycU-Eq9o8mFGcGbb0F-121" target="aPycU-Eq9o8mFGcGbb0F-129" edge="1">
          <mxGeometry relative="1" as="geometry">
            <mxPoint x="1351" y="1930" as="sourcePoint" />
            <mxPoint x="1271" y="1930" as="targetPoint" />
          </mxGeometry>
        </mxCell>
        <mxCell id="aPycU-Eq9o8mFGcGbb0F-133" value="&lt;font style=&quot;font-size: 9px;&quot;&gt;Mostrar &quot;cuenta activada&quot;&lt;/font&gt;" style="html=1;verticalAlign=bottom;endArrow=open;dashed=1;endSize=8;curved=0;rounded=0;exitX=0;exitY=1;exitDx=0;exitDy=-5;exitPerimeter=0;entryX=1;entryY=0;entryDx=0;entryDy=5;entryPerimeter=0;labelBackgroundColor=none;fontColor=default;" parent="1" source="aPycU-Eq9o8mFGcGbb0F-129" target="R3Ze9OEiheNbRMXw7LAC-130" edge="1">
          <mxGeometry relative="1" as="geometry">
            <mxPoint x="1681" y="1860" as="sourcePoint" />
            <mxPoint x="1351" y="1860" as="targetPoint" />
          </mxGeometry>
        </mxCell>
        <mxCell id="aPycU-Eq9o8mFGcGbb0F-134" value="" style="endArrow=none;dashed=1;html=1;rounded=0;exitX=0.001;exitY=0.499;exitDx=0;exitDy=0;exitPerimeter=0;entryX=1.004;entryY=0.499;entryDx=0;entryDy=0;entryPerimeter=0;labelBackgroundColor=none;fontColor=default;" parent="1" edge="1">
          <mxGeometry width="50" height="50" relative="1" as="geometry">
            <mxPoint x="1045" y="1770" as="sourcePoint" />
            <mxPoint x="1636.7700000000004" y="1770" as="targetPoint" />
          </mxGeometry>
        </mxCell>
        <mxCell id="aPycU-Eq9o8mFGcGbb0F-135" value="[Token invalido]" style="text;align=center;fontStyle=1;verticalAlign=middle;spacingLeft=3;spacingRight=3;rotatable=0;points=[[0,0.5],[1,0.5]];portConstraint=eastwest;html=1;fontSize=10;labelBackgroundColor=none;" parent="1" vertex="1">
          <mxGeometry x="1110" y="1770" width="80" height="26" as="geometry" />
        </mxCell>
        <mxCell id="aPycU-Eq9o8mFGcGbb0F-139" value="&lt;span style=&quot;font-size: 9px;&quot;&gt;Mostrar error de confirmacion&lt;/span&gt;" style="html=1;verticalAlign=bottom;endArrow=open;dashed=1;endSize=8;curved=0;rounded=0;exitX=0;exitY=0;exitDx=0;exitDy=5;exitPerimeter=0;labelBackgroundColor=none;fontColor=default;entryX=1;entryY=1;entryDx=0;entryDy=-5;entryPerimeter=0;" parent="1" source="aPycU-Eq9o8mFGcGbb0F-136" target="R3Ze9OEiheNbRMXw7LAC-130" edge="1">
          <mxGeometry relative="1" as="geometry">
            <mxPoint x="1331" y="1970" as="sourcePoint" />
            <mxPoint x="1145" y="1945" as="targetPoint" />
            <Array as="points" />
          </mxGeometry>
        </mxCell>
        <mxCell id="R3Ze9OEiheNbRMXw7LAC-1" value="" style="rounded=0;whiteSpace=wrap;html=1;labelBackgroundColor=none;" vertex="1" parent="1">
          <mxGeometry x="885" y="1890" width="720" height="300" as="geometry" />
        </mxCell>
        <mxCell id="R3Ze9OEiheNbRMXw7LAC-2" value="Usuario" style="shape=umlLifeline;perimeter=lifelinePerimeter;whiteSpace=wrap;html=1;container=1;dropTarget=0;collapsible=0;recursiveResize=0;outlineConnect=0;portConstraint=eastwest;newEdgeStyle={&quot;curved&quot;:0,&quot;rounded&quot;:0};participant=umlActor;size=70;labelBackgroundColor=none;" vertex="1" parent="1">
          <mxGeometry x="975" y="1910" width="50" height="280" as="geometry" />
        </mxCell>
        <mxCell id="R3Ze9OEiheNbRMXw7LAC-4" value="" style="html=1;points=[[0,0,0,0,5],[0,1,0,0,-5],[1,0,0,0,5],[1,1,0,0,-5]];perimeter=orthogonalPerimeter;outlineConnect=0;targetShapes=umlLifeline;portConstraint=eastwest;newEdgeStyle={&quot;curved&quot;:0,&quot;rounded&quot;:0};labelBackgroundColor=none;" vertex="1" parent="R3Ze9OEiheNbRMXw7LAC-2">
          <mxGeometry x="20" y="80" width="10" height="80" as="geometry" />
        </mxCell>
        <mxCell id="R3Ze9OEiheNbRMXw7LAC-6" value="LOGIN" style="rounded=0;whiteSpace=wrap;html=1;labelBackgroundColor=none;" vertex="1" parent="1">
          <mxGeometry x="1090" y="1840" width="320" height="60" as="geometry" />
        </mxCell>
        <mxCell id="R3Ze9OEiheNbRMXw7LAC-7" value=":UI" style="shape=umlLifeline;perimeter=lifelinePerimeter;whiteSpace=wrap;html=1;container=1;dropTarget=0;collapsible=0;recursiveResize=0;outlineConnect=0;portConstraint=eastwest;newEdgeStyle={&quot;curved&quot;:0,&quot;rounded&quot;:0};participant=umlBoundary;size=60;align=center;labelBackgroundColor=none;" vertex="1" parent="1">
          <mxGeometry x="1115" y="1910" width="80" height="280" as="geometry" />
        </mxCell>
        <mxCell id="R3Ze9OEiheNbRMXw7LAC-9" value="" style="html=1;points=[[0,0,0,0,5],[0,1,0,0,-5],[1,0,0,0,5],[1,1,0,0,-5]];perimeter=orthogonalPerimeter;outlineConnect=0;targetShapes=umlLifeline;portConstraint=eastwest;newEdgeStyle={&quot;curved&quot;:0,&quot;rounded&quot;:0};labelBackgroundColor=none;" vertex="1" parent="R3Ze9OEiheNbRMXw7LAC-7">
          <mxGeometry x="35" y="80" width="10" height="30" as="geometry" />
        </mxCell>
        <mxCell id="R3Ze9OEiheNbRMXw7LAC-69" value="" style="html=1;points=[[0,0,0,0,5],[0,1,0,0,-5],[1,0,0,0,5],[1,1,0,0,-5]];perimeter=orthogonalPerimeter;outlineConnect=0;targetShapes=umlLifeline;portConstraint=eastwest;newEdgeStyle={&quot;curved&quot;:0,&quot;rounded&quot;:0};" vertex="1" parent="R3Ze9OEiheNbRMXw7LAC-7">
          <mxGeometry x="35" y="170" width="10" height="50" as="geometry" />
        </mxCell>
        <mxCell id="R3Ze9OEiheNbRMXw7LAC-82" value="" style="html=1;points=[[0,0,0,0,5],[0,1,0,0,-5],[1,0,0,0,5],[1,1,0,0,-5]];perimeter=orthogonalPerimeter;outlineConnect=0;targetShapes=umlLifeline;portConstraint=eastwest;newEdgeStyle={&quot;curved&quot;:0,&quot;rounded&quot;:0};" vertex="1" parent="R3Ze9OEiheNbRMXw7LAC-7">
          <mxGeometry x="35" y="80" width="10" height="160" as="geometry" />
        </mxCell>
        <mxCell id="R3Ze9OEiheNbRMXw7LAC-10" value="BD:LinuxLearn" style="shape=umlLifeline;perimeter=lifelinePerimeter;whiteSpace=wrap;html=1;container=1;dropTarget=0;collapsible=0;recursiveResize=0;outlineConnect=0;portConstraint=eastwest;newEdgeStyle={&quot;curved&quot;:0,&quot;rounded&quot;:0};participant=umlEntity;size=60;labelBackgroundColor=none;" vertex="1" parent="1">
          <mxGeometry x="1455" y="1900" width="80" height="290" as="geometry" />
        </mxCell>
        <mxCell id="R3Ze9OEiheNbRMXw7LAC-62" value="" style="html=1;points=[[0,0,0,0,5],[0,1,0,0,-5],[1,0,0,0,5],[1,1,0,0,-5]];perimeter=orthogonalPerimeter;outlineConnect=0;targetShapes=umlLifeline;portConstraint=eastwest;newEdgeStyle={&quot;curved&quot;:0,&quot;rounded&quot;:0};" vertex="1" parent="R3Ze9OEiheNbRMXw7LAC-10">
          <mxGeometry x="35" y="130" width="10" height="40" as="geometry" />
        </mxCell>
        <mxCell id="R3Ze9OEiheNbRMXw7LAC-73" value="" style="html=1;points=[[0,0,0,0,5],[0,1,0,0,-5],[1,0,0,0,5],[1,1,0,0,-5]];perimeter=orthogonalPerimeter;outlineConnect=0;targetShapes=umlLifeline;portConstraint=eastwest;newEdgeStyle={&quot;curved&quot;:0,&quot;rounded&quot;:0};" vertex="1" parent="R3Ze9OEiheNbRMXw7LAC-10">
          <mxGeometry x="35" y="200" width="10" height="30" as="geometry" />
        </mxCell>
        <mxCell id="R3Ze9OEiheNbRMXw7LAC-81" value="" style="html=1;points=[[0,0,0,0,5],[0,1,0,0,-5],[1,0,0,0,5],[1,1,0,0,-5]];perimeter=orthogonalPerimeter;outlineConnect=0;targetShapes=umlLifeline;portConstraint=eastwest;newEdgeStyle={&quot;curved&quot;:0,&quot;rounded&quot;:0};" vertex="1" parent="R3Ze9OEiheNbRMXw7LAC-10">
          <mxGeometry x="35" y="130" width="10" height="100" as="geometry" />
        </mxCell>
        <mxCell id="R3Ze9OEiheNbRMXw7LAC-13" value=":AppServer" style="shape=umlLifeline;perimeter=lifelinePerimeter;whiteSpace=wrap;html=1;container=1;dropTarget=0;collapsible=0;recursiveResize=0;outlineConnect=0;portConstraint=eastwest;newEdgeStyle={&quot;curved&quot;:0,&quot;rounded&quot;:0};labelBackgroundColor=none;" vertex="1" parent="1">
          <mxGeometry x="1275" y="1910" width="100" height="280" as="geometry" />
        </mxCell>
        <mxCell id="R3Ze9OEiheNbRMXw7LAC-58" value="" style="html=1;points=[[0,0,0,0,5],[0,1,0,0,-5],[1,0,0,0,5],[1,1,0,0,-5]];perimeter=orthogonalPerimeter;outlineConnect=0;targetShapes=umlLifeline;portConstraint=eastwest;newEdgeStyle={&quot;curved&quot;:0,&quot;rounded&quot;:0};" vertex="1" parent="R3Ze9OEiheNbRMXw7LAC-13">
          <mxGeometry x="45" y="100" width="10" height="30" as="geometry" />
        </mxCell>
        <mxCell id="R3Ze9OEiheNbRMXw7LAC-68" value="" style="html=1;points=[[0,0,0,0,5],[0,1,0,0,-5],[1,0,0,0,5],[1,1,0,0,-5]];perimeter=orthogonalPerimeter;outlineConnect=0;targetShapes=umlLifeline;portConstraint=eastwest;newEdgeStyle={&quot;curved&quot;:0,&quot;rounded&quot;:0};" vertex="1" parent="R3Ze9OEiheNbRMXw7LAC-13">
          <mxGeometry x="45" y="150" width="10" height="30" as="geometry" />
        </mxCell>
        <mxCell id="R3Ze9OEiheNbRMXw7LAC-83" value="" style="html=1;points=[[0,0,0,0,5],[0,1,0,0,-5],[1,0,0,0,5],[1,1,0,0,-5]];perimeter=orthogonalPerimeter;outlineConnect=0;targetShapes=umlLifeline;portConstraint=eastwest;newEdgeStyle={&quot;curved&quot;:0,&quot;rounded&quot;:0};" vertex="1" parent="R3Ze9OEiheNbRMXw7LAC-13">
          <mxGeometry x="45" y="100" width="10" height="80" as="geometry" />
        </mxCell>
        <mxCell id="R3Ze9OEiheNbRMXw7LAC-24" value="&lt;font style=&quot;font-size: 9px;&quot;&gt;Ingresar email y contraseÃ±a&lt;/font&gt;" style="html=1;verticalAlign=bottom;endArrow=block;curved=0;rounded=0;exitX=1;exitY=0;exitDx=0;exitDy=5;exitPerimeter=0;entryX=0;entryY=0;entryDx=0;entryDy=5;entryPerimeter=0;labelBackgroundColor=none;fontColor=default;" edge="1" parent="1" source="R3Ze9OEiheNbRMXw7LAC-4" target="R3Ze9OEiheNbRMXw7LAC-9">
          <mxGeometry width="80" relative="1" as="geometry">
            <mxPoint x="1102" y="2150" as="sourcePoint" />
            <mxPoint x="1182" y="2150" as="targetPoint" />
          </mxGeometry>
        </mxCell>
        <mxCell id="R3Ze9OEiheNbRMXw7LAC-61" value="&lt;font style=&quot;font-size: 9px;&quot;&gt;Enviar credenciales&lt;/font&gt;" style="html=1;verticalAlign=bottom;endArrow=block;curved=0;rounded=0;exitX=1;exitY=1;exitDx=0;exitDy=-5;exitPerimeter=0;entryX=0;entryY=0;entryDx=0;entryDy=5;entryPerimeter=0;labelBackgroundColor=none;fontColor=default;" edge="1" parent="1" source="R3Ze9OEiheNbRMXw7LAC-9" target="R3Ze9OEiheNbRMXw7LAC-58">
          <mxGeometry width="80" relative="1" as="geometry">
            <mxPoint x="1095" y="2120" as="sourcePoint" />
            <mxPoint x="1349" y="2120" as="targetPoint" />
          </mxGeometry>
        </mxCell>
        <mxCell id="R3Ze9OEiheNbRMXw7LAC-63" value="&lt;font style=&quot;font-size: 9px;&quot;&gt;Validar credenciales&lt;/font&gt;" style="html=1;verticalAlign=bottom;endArrow=block;curved=0;rounded=0;exitX=1;exitY=1;exitDx=0;exitDy=-5;exitPerimeter=0;entryX=0;entryY=0;entryDx=0;entryDy=5;entryPerimeter=0;labelBackgroundColor=none;fontColor=default;" edge="1" parent="1" source="R3Ze9OEiheNbRMXw7LAC-58" target="R3Ze9OEiheNbRMXw7LAC-62">
          <mxGeometry width="80" relative="1" as="geometry">
            <mxPoint x="1205" y="2120" as="sourcePoint" />
            <mxPoint x="1346" y="2120" as="targetPoint" />
          </mxGeometry>
        </mxCell>
        <mxCell id="R3Ze9OEiheNbRMXw7LAC-66" value="&lt;font size=&quot;1&quot;&gt;Usuario valido&lt;/font&gt;" style="html=1;verticalAlign=bottom;endArrow=open;dashed=1;endSize=8;curved=0;rounded=0;entryX=1;entryY=0;entryDx=0;entryDy=5;entryPerimeter=0;exitX=0;exitY=1;exitDx=0;exitDy=-5;exitPerimeter=0;labelBackgroundColor=none;fontColor=default;" edge="1" parent="1" source="R3Ze9OEiheNbRMXw7LAC-62" target="R3Ze9OEiheNbRMXw7LAC-68">
          <mxGeometry relative="1" as="geometry">
            <mxPoint x="1566" y="2220" as="sourcePoint" />
            <mxPoint x="1425" y="2220" as="targetPoint" />
            <Array as="points" />
          </mxGeometry>
        </mxCell>
        <mxCell id="R3Ze9OEiheNbRMXw7LAC-71" value="&lt;font size=&quot;1&quot;&gt;mostrar home&lt;/font&gt;" style="html=1;verticalAlign=bottom;endArrow=open;dashed=1;endSize=8;curved=0;rounded=0;entryX=1;entryY=0;entryDx=0;entryDy=5;entryPerimeter=0;exitX=0;exitY=1;exitDx=0;exitDy=-5;exitPerimeter=0;labelBackgroundColor=none;fontColor=default;" edge="1" parent="1" source="R3Ze9OEiheNbRMXw7LAC-68" target="R3Ze9OEiheNbRMXw7LAC-69">
          <mxGeometry relative="1" as="geometry">
            <mxPoint x="1635" y="2200" as="sourcePoint" />
            <mxPoint x="1335" y="2200" as="targetPoint" />
            <Array as="points" />
          </mxGeometry>
        </mxCell>
        <mxCell id="R3Ze9OEiheNbRMXw7LAC-74" value="&lt;font size=&quot;1&quot;&gt;mostrar error (credenciales incorrectas)&lt;/font&gt;" style="html=1;verticalAlign=bottom;endArrow=open;dashed=1;endSize=8;curved=0;rounded=0;entryX=1;entryY=1;entryDx=0;entryDy=-5;entryPerimeter=0;exitX=0;exitY=1;exitDx=0;exitDy=-5;exitPerimeter=0;labelBackgroundColor=none;fontColor=default;" edge="1" parent="1" source="R3Ze9OEiheNbRMXw7LAC-73" target="R3Ze9OEiheNbRMXw7LAC-69">
          <mxGeometry x="0.0015" relative="1" as="geometry">
            <mxPoint x="1376" y="2230" as="sourcePoint" />
            <mxPoint x="1235" y="2230" as="targetPoint" />
            <Array as="points" />
            <mxPoint as="offset" />
          </mxGeometry>
        </mxCell>
        <mxCell id="R3Ze9OEiheNbRMXw7LAC-65" value="[Credenciales correctas]" style="text;align=center;fontStyle=1;verticalAlign=middle;spacingLeft=3;spacingRight=3;rotatable=0;points=[[0,0.5],[1,0.5]];portConstraint=eastwest;html=1;fontSize=10;labelBackgroundColor=none;" vertex="1" parent="1">
          <mxGeometry x="1090" y="2040" width="120" height="26" as="geometry" />
        </mxCell>
        <mxCell id="R3Ze9OEiheNbRMXw7LAC-64" value="alt" style="shape=umlFrame;whiteSpace=wrap;html=1;pointerEvents=0;" vertex="1" parent="1">
          <mxGeometry x="1030.89" y="2040" width="540" height="117" as="geometry" />
        </mxCell>
        <mxCell id="R3Ze9OEiheNbRMXw7LAC-119" value="RECUPERAR CONTRASEÃA" style="rounded=0;whiteSpace=wrap;html=1;labelBackgroundColor=none;" vertex="1" parent="1">
          <mxGeometry x="1081" y="2470" width="320" height="60" as="geometry" />
        </mxCell>
        <mxCell id="R3Ze9OEiheNbRMXw7LAC-121" value="Usuario" style="shape=umlLifeline;perimeter=lifelinePerimeter;whiteSpace=wrap;html=1;container=1;dropTarget=0;collapsible=0;recursiveResize=0;outlineConnect=0;portConstraint=eastwest;newEdgeStyle={&quot;curved&quot;:0,&quot;rounded&quot;:0};participant=umlActor;size=70;labelBackgroundColor=none;" vertex="1" parent="1">
          <mxGeometry x="890" y="2543" width="50" height="717" as="geometry" />
        </mxCell>
        <mxCell id="R3Ze9OEiheNbRMXw7LAC-179" value="" style="html=1;points=[[0,0,0,0,5],[0,1,0,0,-5],[1,0,0,0,5],[1,1,0,0,-5]];perimeter=orthogonalPerimeter;outlineConnect=0;targetShapes=umlLifeline;portConstraint=eastwest;newEdgeStyle={&quot;curved&quot;:0,&quot;rounded&quot;:0};" vertex="1" parent="R3Ze9OEiheNbRMXw7LAC-121">
          <mxGeometry x="20" y="337" width="10" height="53" as="geometry" />
        </mxCell>
        <mxCell id="R3Ze9OEiheNbRMXw7LAC-196" value="" style="html=1;points=[[0,0,0,0,5],[0,1,0,0,-5],[1,0,0,0,5],[1,1,0,0,-5]];perimeter=orthogonalPerimeter;outlineConnect=0;targetShapes=umlLifeline;portConstraint=eastwest;newEdgeStyle={&quot;curved&quot;:0,&quot;rounded&quot;:0};" vertex="1" parent="R3Ze9OEiheNbRMXw7LAC-121">
          <mxGeometry x="20" y="507" width="10" height="43" as="geometry" />
        </mxCell>
        <mxCell id="R3Ze9OEiheNbRMXw7LAC-144" value="" style="html=1;points=[[0,0,0,0,5],[0,1,0,0,-5],[1,0,0,0,5],[1,1,0,0,-5]];perimeter=orthogonalPerimeter;outlineConnect=0;targetShapes=umlLifeline;portConstraint=eastwest;newEdgeStyle={&quot;curved&quot;:0,&quot;rounded&quot;:0};" vertex="1" parent="R3Ze9OEiheNbRMXw7LAC-121">
          <mxGeometry x="20" y="97" width="10" height="593" as="geometry" />
        </mxCell>
        <mxCell id="R3Ze9OEiheNbRMXw7LAC-126" value="" style="endArrow=none;dashed=1;html=1;rounded=0;exitX=0;exitY=0.549;exitDx=0;exitDy=0;exitPerimeter=0;entryX=1.001;entryY=0.522;entryDx=0;entryDy=0;entryPerimeter=0;" edge="1" parent="1" target="R3Ze9OEiheNbRMXw7LAC-64">
          <mxGeometry width="50" height="50" relative="1" as="geometry">
            <mxPoint x="1031.43" y="2100.003" as="sourcePoint" />
            <mxPoint x="1499.99" y="2098.63" as="targetPoint" />
          </mxGeometry>
        </mxCell>
        <mxCell id="R3Ze9OEiheNbRMXw7LAC-131" value=":UI" style="shape=umlLifeline;perimeter=lifelinePerimeter;whiteSpace=wrap;html=1;container=1;dropTarget=0;collapsible=0;recursiveResize=0;outlineConnect=0;portConstraint=eastwest;newEdgeStyle={&quot;curved&quot;:0,&quot;rounded&quot;:0};participant=umlBoundary;size=60;align=center;labelBackgroundColor=none;" vertex="1" parent="1">
          <mxGeometry x="1030" y="2543" width="80" height="717" as="geometry" />
        </mxCell>
        <mxCell id="R3Ze9OEiheNbRMXw7LAC-147" value="" style="html=1;points=[[0,0,0,0,5],[0,1,0,0,-5],[1,0,0,0,5],[1,1,0,0,-5]];perimeter=orthogonalPerimeter;outlineConnect=0;targetShapes=umlLifeline;portConstraint=eastwest;newEdgeStyle={&quot;curved&quot;:0,&quot;rounded&quot;:0};" vertex="1" parent="R3Ze9OEiheNbRMXw7LAC-131">
          <mxGeometry x="35" y="97" width="10" height="33" as="geometry" />
        </mxCell>
        <mxCell id="R3Ze9OEiheNbRMXw7LAC-181" value="" style="html=1;points=[[0,0,0,0,5],[0,1,0,0,-5],[1,0,0,0,5],[1,1,0,0,-5]];perimeter=orthogonalPerimeter;outlineConnect=0;targetShapes=umlLifeline;portConstraint=eastwest;newEdgeStyle={&quot;curved&quot;:0,&quot;rounded&quot;:0};" vertex="1" parent="R3Ze9OEiheNbRMXw7LAC-131">
          <mxGeometry x="35" y="377" width="10" height="23" as="geometry" />
        </mxCell>
        <mxCell id="R3Ze9OEiheNbRMXw7LAC-209" value="" style="html=1;points=[[0,0,0,0,5],[0,1,0,0,-5],[1,0,0,0,5],[1,1,0,0,-5]];perimeter=orthogonalPerimeter;outlineConnect=0;targetShapes=umlLifeline;portConstraint=eastwest;newEdgeStyle={&quot;curved&quot;:0,&quot;rounded&quot;:0};" vertex="1" parent="R3Ze9OEiheNbRMXw7LAC-131">
          <mxGeometry x="35" y="97" width="10" height="593" as="geometry" />
        </mxCell>
        <mxCell id="R3Ze9OEiheNbRMXw7LAC-135" value=":AppServer" style="shape=umlLifeline;perimeter=lifelinePerimeter;whiteSpace=wrap;html=1;container=1;dropTarget=0;collapsible=0;recursiveResize=0;outlineConnect=0;portConstraint=eastwest;newEdgeStyle={&quot;curved&quot;:0,&quot;rounded&quot;:0};labelBackgroundColor=none;" vertex="1" parent="1">
          <mxGeometry x="1180" y="2550" width="100" height="710" as="geometry" />
        </mxCell>
        <mxCell id="R3Ze9OEiheNbRMXw7LAC-160" value="" style="html=1;points=[[0,0,0,0,5],[0,1,0,0,-5],[1,0,0,0,5],[1,1,0,0,-5]];perimeter=orthogonalPerimeter;outlineConnect=0;targetShapes=umlLifeline;portConstraint=eastwest;newEdgeStyle={&quot;curved&quot;:0,&quot;rounded&quot;:0};" vertex="1" parent="R3Ze9OEiheNbRMXw7LAC-135">
          <mxGeometry x="45" y="110" width="10" height="40" as="geometry" />
        </mxCell>
        <mxCell id="R3Ze9OEiheNbRMXw7LAC-165" value="" style="html=1;points=[[0,0,0,0,5],[0,1,0,0,-5],[1,0,0,0,5],[1,1,0,0,-5]];perimeter=orthogonalPerimeter;outlineConnect=0;targetShapes=umlLifeline;portConstraint=eastwest;newEdgeStyle={&quot;curved&quot;:0,&quot;rounded&quot;:0};" vertex="1" parent="R3Ze9OEiheNbRMXw7LAC-135">
          <mxGeometry x="45" y="180" width="10" height="40" as="geometry" />
        </mxCell>
        <mxCell id="R3Ze9OEiheNbRMXw7LAC-176" value="" style="html=1;points=[[0,0,0,0,5],[0,1,0,0,-5],[1,0,0,0,5],[1,1,0,0,-5]];perimeter=orthogonalPerimeter;outlineConnect=0;targetShapes=umlLifeline;portConstraint=eastwest;newEdgeStyle={&quot;curved&quot;:0,&quot;rounded&quot;:0};" vertex="1" parent="R3Ze9OEiheNbRMXw7LAC-135">
          <mxGeometry x="45" y="290" width="10" height="20" as="geometry" />
        </mxCell>
        <mxCell id="R3Ze9OEiheNbRMXw7LAC-183" value="" style="html=1;points=[[0,0,0,0,5],[0,1,0,0,-5],[1,0,0,0,5],[1,1,0,0,-5]];perimeter=orthogonalPerimeter;outlineConnect=0;targetShapes=umlLifeline;portConstraint=eastwest;newEdgeStyle={&quot;curved&quot;:0,&quot;rounded&quot;:0};" vertex="1" parent="R3Ze9OEiheNbRMXw7LAC-135">
          <mxGeometry x="45" y="380" width="10" height="30" as="geometry" />
        </mxCell>
        <mxCell id="R3Ze9OEiheNbRMXw7LAC-203" value="" style="html=1;points=[[0,0,0,0,5],[0,1,0,0,-5],[1,0,0,0,5],[1,1,0,0,-5]];perimeter=orthogonalPerimeter;outlineConnect=0;targetShapes=umlLifeline;portConstraint=eastwest;newEdgeStyle={&quot;curved&quot;:0,&quot;rounded&quot;:0};" vertex="1" parent="R3Ze9OEiheNbRMXw7LAC-135">
          <mxGeometry x="45" y="550" width="10" height="20" as="geometry" />
        </mxCell>
        <mxCell id="R3Ze9OEiheNbRMXw7LAC-206" value="" style="html=1;points=[[0,0,0,0,5],[0,1,0,0,-5],[1,0,0,0,5],[1,1,0,0,-5]];perimeter=orthogonalPerimeter;outlineConnect=0;targetShapes=umlLifeline;portConstraint=eastwest;newEdgeStyle={&quot;curved&quot;:0,&quot;rounded&quot;:0};" vertex="1" parent="R3Ze9OEiheNbRMXw7LAC-135">
          <mxGeometry x="45" y="610" width="10" height="30" as="geometry" />
        </mxCell>
        <mxCell id="R3Ze9OEiheNbRMXw7LAC-210" value="" style="html=1;points=[[0,0,0,0,5],[0,1,0,0,-5],[1,0,0,0,5],[1,1,0,0,-5]];perimeter=orthogonalPerimeter;outlineConnect=0;targetShapes=umlLifeline;portConstraint=eastwest;newEdgeStyle={&quot;curved&quot;:0,&quot;rounded&quot;:0};" vertex="1" parent="R3Ze9OEiheNbRMXw7LAC-135">
          <mxGeometry x="45" y="110" width="10" height="560" as="geometry" />
        </mxCell>
        <mxCell id="R3Ze9OEiheNbRMXw7LAC-139" value="BD:LinuxLearn" style="shape=umlLifeline;perimeter=lifelinePerimeter;whiteSpace=wrap;html=1;container=1;dropTarget=0;collapsible=0;recursiveResize=0;outlineConnect=0;portConstraint=eastwest;newEdgeStyle={&quot;curved&quot;:0,&quot;rounded&quot;:0};participant=umlEntity;size=60;labelBackgroundColor=none;" vertex="1" parent="1">
          <mxGeometry x="1530" y="2530" width="80" height="730" as="geometry" />
        </mxCell>
        <mxCell id="R3Ze9OEiheNbRMXw7LAC-162" value="" style="html=1;points=[[0,0,0,0,5],[0,1,0,0,-5],[1,0,0,0,5],[1,1,0,0,-5]];perimeter=orthogonalPerimeter;outlineConnect=0;targetShapes=umlLifeline;portConstraint=eastwest;newEdgeStyle={&quot;curved&quot;:0,&quot;rounded&quot;:0};" vertex="1" parent="R3Ze9OEiheNbRMXw7LAC-139">
          <mxGeometry x="35.89" y="160" width="10" height="50" as="geometry" />
        </mxCell>
        <mxCell id="R3Ze9OEiheNbRMXw7LAC-171" value="" style="html=1;points=[[0,0,0,0,5],[0,1,0,0,-5],[1,0,0,0,5],[1,1,0,0,-5]];perimeter=orthogonalPerimeter;outlineConnect=0;targetShapes=umlLifeline;portConstraint=eastwest;newEdgeStyle={&quot;curved&quot;:0,&quot;rounded&quot;:0};" vertex="1" parent="R3Ze9OEiheNbRMXw7LAC-139">
          <mxGeometry x="35" y="270" width="10" height="30" as="geometry" />
        </mxCell>
        <mxCell id="R3Ze9OEiheNbRMXw7LAC-175" value="" style="html=1;points=[[0,0,0,0,5],[0,1,0,0,-5],[1,0,0,0,5],[1,1,0,0,-5]];perimeter=orthogonalPerimeter;outlineConnect=0;targetShapes=umlLifeline;portConstraint=eastwest;newEdgeStyle={&quot;curved&quot;:0,&quot;rounded&quot;:0};" vertex="1" parent="R3Ze9OEiheNbRMXw7LAC-139">
          <mxGeometry x="35.89" y="310" width="10" height="50" as="geometry" />
        </mxCell>
        <mxCell id="R3Ze9OEiheNbRMXw7LAC-185" value="" style="html=1;points=[[0,0,0,0,5],[0,1,0,0,-5],[1,0,0,0,5],[1,1,0,0,-5]];perimeter=orthogonalPerimeter;outlineConnect=0;targetShapes=umlLifeline;portConstraint=eastwest;newEdgeStyle={&quot;curved&quot;:0,&quot;rounded&quot;:0};spacing=2;spacingBottom=0;strokeWidth=1;" vertex="1" parent="R3Ze9OEiheNbRMXw7LAC-139">
          <mxGeometry x="35" y="421" width="10" height="80" as="geometry" />
        </mxCell>
        <mxCell id="R3Ze9OEiheNbRMXw7LAC-199" value="" style="html=1;points=[[0,0,0,0,5],[0,1,0,0,-5],[1,0,0,0,5],[1,1,0,0,-5]];perimeter=orthogonalPerimeter;outlineConnect=0;targetShapes=umlLifeline;portConstraint=eastwest;newEdgeStyle={&quot;curved&quot;:0,&quot;rounded&quot;:0};" vertex="1" parent="R3Ze9OEiheNbRMXw7LAC-139">
          <mxGeometry x="35" y="540" width="10" height="100" as="geometry" />
        </mxCell>
        <mxCell id="R3Ze9OEiheNbRMXw7LAC-148" value="Pide recuperar contraseÃ±a" style="html=1;verticalAlign=bottom;endArrow=block;curved=0;rounded=0;exitX=1;exitY=0;exitDx=0;exitDy=5;exitPerimeter=0;entryX=0;entryY=0;entryDx=0;entryDy=5;entryPerimeter=0;fontSize=9;" edge="1" parent="1" source="R3Ze9OEiheNbRMXw7LAC-144" target="R3Ze9OEiheNbRMXw7LAC-147">
          <mxGeometry width="80" relative="1" as="geometry">
            <mxPoint x="1235" y="2790" as="sourcePoint" />
            <mxPoint x="1315" y="2790" as="targetPoint" />
          </mxGeometry>
        </mxCell>
        <mxCell id="R3Ze9OEiheNbRMXw7LAC-149" value=":CorreoService&lt;span style=&quot;color: rgba(0, 0, 0, 0); font-family: monospace; font-size: 0px; text-align: start; text-wrap-mode: nowrap;&quot;&gt;%3CmxGraphModel%3E%3Croot%3E%3CmxCell%20id%3D%220%22%2F%3E%3CmxCell%20id%3D%221%22%20parent%3D%220%22%2F%3E%3CmxCell%20id%3D%222%22%20value%3D%22%3AObject%22%20style%3D%22shape%3DumlLifeline%3Bperimeter%3DlifelinePerimeter%3BwhiteSpace%3Dwrap%3Bhtml%3D1%3Bcontainer%3D1%3BdropTarget%3D0%3Bcollapsible%3D0%3BrecursiveResize%3D0%3BoutlineConnect%3D0%3BportConstraint%3Deastwest%3BnewEdgeStyle%3D%7B%26quot%3Bcurved%26quot%3B%3A0%2C%26quot%3Brounded%26quot%3B%3A0%7D%3B%22%20vertex%3D%221%22%20parent%3D%221%22%3E%3CmxGeometry%20x%3D%22254%22%20y%3D%22140%22%20width%3D%22100%22%20height%3D%22300%22%20as%3D%22geometry%22%2F%3E%3C%2FmxCell%3E%3C%2Froot%3E%3C%2FmxGraphModel%3E&lt;/span&gt;" style="shape=umlLifeline;perimeter=lifelinePerimeter;whiteSpace=wrap;html=1;container=1;dropTarget=0;collapsible=0;recursiveResize=0;outlineConnect=0;portConstraint=eastwest;newEdgeStyle={&quot;curved&quot;:0,&quot;rounded&quot;:0};size=40;labelBackgroundColor=none;" vertex="1" parent="1">
          <mxGeometry x="1360" y="2550" width="100" height="710" as="geometry" />
        </mxCell>
        <mxCell id="R3Ze9OEiheNbRMXw7LAC-212" value="" style="html=1;points=[[0,0,0,0,5],[0,1,0,0,-5],[1,0,0,0,5],[1,1,0,0,-5]];perimeter=orthogonalPerimeter;outlineConnect=0;targetShapes=umlLifeline;portConstraint=eastwest;newEdgeStyle={&quot;curved&quot;:0,&quot;rounded&quot;:0};" vertex="1" parent="R3Ze9OEiheNbRMXw7LAC-149">
          <mxGeometry x="45" y="300" width="10" height="40" as="geometry" />
        </mxCell>
        <mxCell id="R3Ze9OEiheNbRMXw7LAC-159" value="Enviar solicitud de recuperacion" style="html=1;verticalAlign=bottom;endArrow=block;curved=0;rounded=0;exitX=1;exitY=1;exitDx=0;exitDy=-5;exitPerimeter=0;fontSize=9;" edge="1" parent="1" source="R3Ze9OEiheNbRMXw7LAC-147" target="R3Ze9OEiheNbRMXw7LAC-160">
          <mxGeometry x="0.0005" width="80" relative="1" as="geometry">
            <mxPoint x="1145" y="2720" as="sourcePoint" />
            <mxPoint x="1225" y="2665" as="targetPoint" />
            <mxPoint as="offset" />
          </mxGeometry>
        </mxCell>
        <mxCell id="R3Ze9OEiheNbRMXw7LAC-161" value="verificar si email existe" style="html=1;verticalAlign=bottom;endArrow=block;curved=0;rounded=0;exitX=1;exitY=1;exitDx=0;exitDy=-5;exitPerimeter=0;entryX=0;entryY=0;entryDx=0;entryDy=5;entryPerimeter=0;fontSize=9;" edge="1" parent="1" source="R3Ze9OEiheNbRMXw7LAC-160" target="R3Ze9OEiheNbRMXw7LAC-162">
          <mxGeometry x="0.0275" y="5" width="80" relative="1" as="geometry">
            <mxPoint x="1305" y="2750" as="sourcePoint" />
            <mxPoint x="1385" y="2750" as="targetPoint" />
            <mxPoint as="offset" />
          </mxGeometry>
        </mxCell>
        <mxCell id="R3Ze9OEiheNbRMXw7LAC-163" value="alt" style="shape=umlFrame;whiteSpace=wrap;html=1;pointerEvents=0;" vertex="1" parent="1">
          <mxGeometry x="855" y="2710" width="760" height="190" as="geometry" />
        </mxCell>
        <mxCell id="R3Ze9OEiheNbRMXw7LAC-164" value="[Email no registrado]" style="text;align=center;fontStyle=1;verticalAlign=middle;spacingLeft=3;spacingRight=3;rotatable=0;points=[[0,0.5],[1,0.5]];portConstraint=eastwest;html=1;fontSize=10;labelBackgroundColor=none;" vertex="1" parent="1">
          <mxGeometry x="916" y="2710" width="120" height="26" as="geometry" />
        </mxCell>
        <mxCell id="R3Ze9OEiheNbRMXw7LAC-166" value="No existe" style="html=1;verticalAlign=bottom;endArrow=open;dashed=1;endSize=8;curved=0;rounded=0;exitX=0;exitY=1;exitDx=0;exitDy=-5;exitPerimeter=0;entryX=1;entryY=0;entryDx=0;entryDy=5;entryPerimeter=0;fontSize=9;" edge="1" parent="1" source="R3Ze9OEiheNbRMXw7LAC-162" target="R3Ze9OEiheNbRMXw7LAC-165">
          <mxGeometry relative="1" as="geometry">
            <mxPoint x="1335" y="2920" as="sourcePoint" />
            <mxPoint x="1255" y="2920" as="targetPoint" />
          </mxGeometry>
        </mxCell>
        <mxCell id="R3Ze9OEiheNbRMXw7LAC-168" value="Mostrar &quot;correo no encontrado&quot;" style="html=1;verticalAlign=bottom;endArrow=open;dashed=1;endSize=8;curved=0;rounded=0;exitX=0;exitY=1;exitDx=0;exitDy=-5;exitPerimeter=0;entryX=1;entryY=0;entryDx=0;entryDy=5;entryPerimeter=0;fontSize=9;" edge="1" parent="1" source="R3Ze9OEiheNbRMXw7LAC-165" target="R3Ze9OEiheNbRMXw7LAC-167">
          <mxGeometry relative="1" as="geometry">
            <mxPoint x="1685" y="2730" as="sourcePoint" />
            <mxPoint x="1355" y="2730" as="targetPoint" />
          </mxGeometry>
        </mxCell>
        <mxCell id="R3Ze9OEiheNbRMXw7LAC-169" value="" style="endArrow=none;dashed=1;html=1;rounded=0;exitX=-0.001;exitY=0.443;exitDx=0;exitDy=0;exitPerimeter=0;entryX=1.001;entryY=0.438;entryDx=0;entryDy=0;entryPerimeter=0;" edge="1" parent="1">
          <mxGeometry width="50" height="50" relative="1" as="geometry">
            <mxPoint x="856" y="2791.05" as="sourcePoint" />
            <mxPoint x="1617.5199999999998" y="2790" as="targetPoint" />
          </mxGeometry>
        </mxCell>
        <mxCell id="R3Ze9OEiheNbRMXw7LAC-170" value="[Email valido&lt;span style=&quot;background-color: transparent; color: light-dark(rgb(0, 0, 0), rgb(255, 255, 255));&quot;&gt;]&lt;/span&gt;" style="text;align=center;fontStyle=1;verticalAlign=middle;spacingLeft=3;spacingRight=3;rotatable=0;points=[[0,0.5],[1,0.5]];portConstraint=eastwest;html=1;fontSize=10;labelBackgroundColor=none;" vertex="1" parent="1">
          <mxGeometry x="856" y="2802" width="120" height="26" as="geometry" />
        </mxCell>
        <mxCell id="R3Ze9OEiheNbRMXw7LAC-173" value="Usuario valido" style="html=1;verticalAlign=bottom;endArrow=open;dashed=1;endSize=8;curved=0;rounded=0;exitX=0;exitY=0;exitDx=0;exitDy=5;exitPerimeter=0;entryX=1;entryY=0;entryDx=0;entryDy=5;entryPerimeter=0;fontSize=9;" edge="1" parent="1" source="R3Ze9OEiheNbRMXw7LAC-171" target="R3Ze9OEiheNbRMXw7LAC-172">
          <mxGeometry relative="1" as="geometry">
            <mxPoint x="1705" y="2740" as="sourcePoint" />
            <mxPoint x="1375" y="2740" as="targetPoint" />
          </mxGeometry>
        </mxCell>
        <mxCell id="R3Ze9OEiheNbRMXw7LAC-174" value="Generar y guardar token de recuperaciÃ³n" style="html=1;verticalAlign=bottom;endArrow=block;curved=0;rounded=0;exitX=1;exitY=1;exitDx=0;exitDy=-5;exitPerimeter=0;entryX=0;entryY=1;entryDx=0;entryDy=-5;entryPerimeter=0;fontSize=9;" edge="1" parent="1" source="R3Ze9OEiheNbRMXw7LAC-172" target="R3Ze9OEiheNbRMXw7LAC-171">
          <mxGeometry x="0.0005" width="80" relative="1" as="geometry">
            <mxPoint x="1155" y="2670" as="sourcePoint" />
            <mxPoint x="1305" y="2670" as="targetPoint" />
            <mxPoint as="offset" />
          </mxGeometry>
        </mxCell>
        <mxCell id="R3Ze9OEiheNbRMXw7LAC-177" value="Enviar correo con enlace de recuperacion" style="html=1;verticalAlign=bottom;endArrow=block;curved=0;rounded=0;exitX=1;exitY=0;exitDx=0;exitDy=5;exitPerimeter=0;fontSize=9;entryX=0;entryY=0;entryDx=0;entryDy=5;entryPerimeter=0;" edge="1" parent="1">
          <mxGeometry x="0.0005" width="80" relative="1" as="geometry">
            <mxPoint x="1235" y="2860" as="sourcePoint" />
            <mxPoint x="1405" y="2860" as="targetPoint" />
            <mxPoint as="offset" />
          </mxGeometry>
        </mxCell>
        <mxCell id="R3Ze9OEiheNbRMXw7LAC-178" value="Recibe email" style="html=1;verticalAlign=bottom;endArrow=open;dashed=1;endSize=8;curved=0;rounded=0;fontSize=9;entryX=1;entryY=0;entryDx=0;entryDy=5;entryPerimeter=0;exitX=0;exitY=1;exitDx=0;exitDy=-5;exitPerimeter=0;" edge="1" parent="1" source="R3Ze9OEiheNbRMXw7LAC-212" target="R3Ze9OEiheNbRMXw7LAC-179">
          <mxGeometry relative="1" as="geometry">
            <mxPoint x="1775" y="2740" as="sourcePoint" />
            <mxPoint x="1445" y="2740" as="targetPoint" />
          </mxGeometry>
        </mxCell>
        <mxCell id="R3Ze9OEiheNbRMXw7LAC-182" value="Click enlace de recuperaciÃ³n" style="html=1;verticalAlign=bottom;endArrow=block;curved=0;rounded=0;exitX=1;exitY=1;exitDx=0;exitDy=-5;exitPerimeter=0;fontSize=9;" edge="1" parent="1" source="R3Ze9OEiheNbRMXw7LAC-179" target="R3Ze9OEiheNbRMXw7LAC-181">
          <mxGeometry x="0.0275" y="5" width="80" relative="1" as="geometry">
            <mxPoint x="1365" y="2690" as="sourcePoint" />
            <mxPoint x="1064.9999999999998" y="2925" as="targetPoint" />
            <mxPoint as="offset" />
          </mxGeometry>
        </mxCell>
        <mxCell id="R3Ze9OEiheNbRMXw7LAC-184" value="Enviar token" style="html=1;verticalAlign=bottom;endArrow=block;curved=0;rounded=0;exitX=1;exitY=1;exitDx=0;exitDy=-5;exitPerimeter=0;fontSize=9;" edge="1" parent="1" source="R3Ze9OEiheNbRMXw7LAC-181" target="R3Ze9OEiheNbRMXw7LAC-183">
          <mxGeometry x="0.0275" y="5" width="80" relative="1" as="geometry">
            <mxPoint x="995" y="2920" as="sourcePoint" />
            <mxPoint x="1140" y="2920" as="targetPoint" />
            <mxPoint as="offset" />
          </mxGeometry>
        </mxCell>
        <mxCell id="R3Ze9OEiheNbRMXw7LAC-186" value="Validar token" style="html=1;verticalAlign=bottom;endArrow=block;curved=0;rounded=0;exitX=1;exitY=1;exitDx=0;exitDy=-5;exitPerimeter=0;fontSize=9;entryX=0;entryY=0;entryDx=0;entryDy=5;entryPerimeter=0;" edge="1" parent="1" source="R3Ze9OEiheNbRMXw7LAC-183" target="R3Ze9OEiheNbRMXw7LAC-185">
          <mxGeometry x="0.0275" y="5" width="80" relative="1" as="geometry">
            <mxPoint x="1185" y="2950" as="sourcePoint" />
            <mxPoint x="1336" y="2950" as="targetPoint" />
            <mxPoint as="offset" />
          </mxGeometry>
        </mxCell>
        <mxCell id="R3Ze9OEiheNbRMXw7LAC-188" value="alt" style="shape=umlFrame;whiteSpace=wrap;html=1;pointerEvents=0;" vertex="1" parent="1">
          <mxGeometry x="859.74" y="2980" width="760" height="250" as="geometry" />
        </mxCell>
        <mxCell id="R3Ze9OEiheNbRMXw7LAC-189" value="[Token valido]" style="text;align=center;fontStyle=1;verticalAlign=middle;spacingLeft=3;spacingRight=3;rotatable=0;points=[[0,0.5],[1,0.5]];portConstraint=eastwest;html=1;fontSize=10;labelBackgroundColor=none;" vertex="1" parent="1">
          <mxGeometry x="920.74" y="2980" width="120" height="26" as="geometry" />
        </mxCell>
        <mxCell id="R3Ze9OEiheNbRMXw7LAC-190" value="" style="endArrow=none;dashed=1;html=1;rounded=0;exitX=-0.001;exitY=0.443;exitDx=0;exitDy=0;exitPerimeter=0;entryX=1.001;entryY=0.438;entryDx=0;entryDy=0;entryPerimeter=0;" edge="1" parent="1">
          <mxGeometry width="50" height="50" relative="1" as="geometry">
            <mxPoint x="860.74" y="3131.05" as="sourcePoint" />
            <mxPoint x="1622.2599999999998" y="3130" as="targetPoint" />
          </mxGeometry>
        </mxCell>
        <mxCell id="R3Ze9OEiheNbRMXw7LAC-191" value="[Token invalido&lt;span style=&quot;background-color: transparent; color: light-dark(rgb(0, 0, 0), rgb(255, 255, 255));&quot;&gt;]&lt;/span&gt;" style="text;align=center;fontStyle=1;verticalAlign=middle;spacingLeft=3;spacingRight=3;rotatable=0;points=[[0,0.5],[1,0.5]];portConstraint=eastwest;html=1;fontSize=10;labelBackgroundColor=none;" vertex="1" parent="1">
          <mxGeometry x="859.74" y="3137" width="120" height="26" as="geometry" />
        </mxCell>
        <mxCell id="R3Ze9OEiheNbRMXw7LAC-192" value="Token correcto" style="html=1;verticalAlign=bottom;endArrow=open;dashed=1;endSize=8;curved=0;rounded=0;exitX=0;exitY=1;exitDx=0;exitDy=-5;exitPerimeter=0;entryX=1;entryY=0;entryDx=0;entryDy=5;entryPerimeter=0;fontSize=9;" edge="1" parent="1" source="R3Ze9OEiheNbRMXw7LAC-185" target="R3Ze9OEiheNbRMXw7LAC-193">
          <mxGeometry relative="1" as="geometry">
            <mxPoint x="1566" y="3020" as="sourcePoint" />
            <mxPoint x="1236" y="3020" as="targetPoint" />
          </mxGeometry>
        </mxCell>
        <mxCell id="R3Ze9OEiheNbRMXw7LAC-195" value="Mostrar formulario para&amp;nbsp;&lt;div&gt;nueva contraseÃ±a&lt;/div&gt;" style="html=1;verticalAlign=bottom;endArrow=open;dashed=1;endSize=8;curved=0;rounded=0;exitX=0;exitY=1;exitDx=0;exitDy=-5;exitPerimeter=0;entryX=1;entryY=0;entryDx=0;entryDy=5;entryPerimeter=0;fontSize=9;" edge="1" parent="1" source="R3Ze9OEiheNbRMXw7LAC-193" target="R3Ze9OEiheNbRMXw7LAC-194">
          <mxGeometry relative="1" as="geometry">
            <mxPoint x="1615" y="3021" as="sourcePoint" />
            <mxPoint x="1285" y="3020" as="targetPoint" />
          </mxGeometry>
        </mxCell>
        <mxCell id="R3Ze9OEiheNbRMXw7LAC-197" value="ingresa nueva contraseÃ±a" style="html=1;verticalAlign=bottom;endArrow=block;curved=0;rounded=0;exitX=1;exitY=0;exitDx=0;exitDy=5;exitPerimeter=0;fontSize=9;entryX=0;entryY=1;entryDx=0;entryDy=-5;entryPerimeter=0;" edge="1" parent="1" source="R3Ze9OEiheNbRMXw7LAC-196" target="R3Ze9OEiheNbRMXw7LAC-194">
          <mxGeometry x="0.0275" y="5" width="80" relative="1" as="geometry">
            <mxPoint x="1015" y="2930" as="sourcePoint" />
            <mxPoint x="1160" y="2930" as="targetPoint" />
            <mxPoint as="offset" />
          </mxGeometry>
        </mxCell>
        <mxCell id="R3Ze9OEiheNbRMXw7LAC-200" value="Enviar nueva contraseÃ±a" style="html=1;verticalAlign=bottom;endArrow=block;curved=0;rounded=0;fontSize=9;entryX=0;entryY=0;entryDx=0;entryDy=5;entryPerimeter=0;exitX=1;exitY=0;exitDx=0;exitDy=5;exitPerimeter=0;" edge="1" parent="1" source="R3Ze9OEiheNbRMXw7LAC-198" target="R3Ze9OEiheNbRMXw7LAC-201">
          <mxGeometry x="0.0275" y="5" width="80" relative="1" as="geometry">
            <mxPoint x="1295" y="3050" as="sourcePoint" />
            <mxPoint x="1210" y="3070" as="targetPoint" />
            <mxPoint as="offset" />
          </mxGeometry>
        </mxCell>
        <mxCell id="R3Ze9OEiheNbRMXw7LAC-202" value="Actualizar contraseÃ±a" style="html=1;verticalAlign=bottom;endArrow=block;curved=0;rounded=0;fontSize=9;entryX=0;entryY=0;entryDx=0;entryDy=5;entryPerimeter=0;exitX=1;exitY=1;exitDx=0;exitDy=-5;exitPerimeter=0;" edge="1" parent="1" source="R3Ze9OEiheNbRMXw7LAC-201" target="R3Ze9OEiheNbRMXw7LAC-199">
          <mxGeometry x="0.0275" y="5" width="80" relative="1" as="geometry">
            <mxPoint x="1175" y="3060" as="sourcePoint" />
            <mxPoint x="1325" y="3060" as="targetPoint" />
            <mxPoint as="offset" />
          </mxGeometry>
        </mxCell>
        <mxCell id="R3Ze9OEiheNbRMXw7LAC-204" value="Mensaje de exito" style="html=1;verticalAlign=bottom;endArrow=open;dashed=1;endSize=8;curved=0;rounded=0;exitX=0;exitY=1;exitDx=0;exitDy=-5;exitPerimeter=0;entryX=1;entryY=1;entryDx=0;entryDy=-5;entryPerimeter=0;fontSize=9;" edge="1" parent="1" source="R3Ze9OEiheNbRMXw7LAC-203" target="R3Ze9OEiheNbRMXw7LAC-198">
          <mxGeometry relative="1" as="geometry">
            <mxPoint x="1645" y="3021" as="sourcePoint" />
            <mxPoint x="1315" y="3020" as="targetPoint" />
          </mxGeometry>
        </mxCell>
        <mxCell id="R3Ze9OEiheNbRMXw7LAC-205" value="Token no valido" style="html=1;verticalAlign=bottom;endArrow=open;dashed=1;endSize=8;curved=0;rounded=0;exitX=0;exitY=1;exitDx=0;exitDy=-5;exitPerimeter=0;entryX=1;entryY=0;entryDx=0;entryDy=5;entryPerimeter=0;fontSize=9;" edge="1" parent="1" source="R3Ze9OEiheNbRMXw7LAC-199" target="R3Ze9OEiheNbRMXw7LAC-206">
          <mxGeometry relative="1" as="geometry">
            <mxPoint x="1325" y="3100" as="sourcePoint" />
            <mxPoint x="1175" y="3100" as="targetPoint" />
          </mxGeometry>
        </mxCell>
        <mxCell id="R3Ze9OEiheNbRMXw7LAC-208" value="Mostrar error" style="html=1;verticalAlign=bottom;endArrow=open;dashed=1;endSize=8;curved=0;rounded=0;exitX=0;exitY=1;exitDx=0;exitDy=-5;exitPerimeter=0;entryX=1;entryY=0;entryDx=0;entryDy=5;entryPerimeter=0;fontSize=9;" edge="1" parent="1" source="R3Ze9OEiheNbRMXw7LAC-206" target="R3Ze9OEiheNbRMXw7LAC-207">
          <mxGeometry relative="1" as="geometry">
            <mxPoint x="1715" y="3170" as="sourcePoint" />
            <mxPoint x="1385" y="3170" as="targetPoint" />
          </mxGeometry>
        </mxCell>
        <mxCell id="R3Ze9OEiheNbRMXw7LAC-211" value="" style="html=1;points=[[0,0,0,0,5],[0,1,0,0,-5],[1,0,0,0,5],[1,1,0,0,-5]];perimeter=orthogonalPerimeter;outlineConnect=0;targetShapes=umlLifeline;portConstraint=eastwest;newEdgeStyle={&quot;curved&quot;:0,&quot;rounded&quot;:0};" vertex="1" parent="1">
          <mxGeometry x="1565" y="2690" width="11" height="530" as="geometry" />
        </mxCell>
      </root>
    </mxGraphModel>
  </diagram>
</mxfile>
